<?xml version="1.0" encoding="UTF-8"?>
<svg id="Lager_2" data-name="Lager 2" xmlns="http://www.w3.org/2000/svg" xmlns:xlink="http://www.w3.org/1999/xlink" viewBox="0 0 1242.98 1016.04">
  <defs>
    <style>
      .cls-1 {
        clip-path: url(#clippath);
      }

      .cls-2 {
        fill: none;
      }

      .cls-2, .cls-3, .cls-4 {
        stroke-width: 0px;
      }

      .cls-3 {
        fill: #fac65e;
      }

      .cls-5 {
        clip-path: url(#clippath-1);
      }

      .cls-4 {
        fill: #a1c144;
      }

      .cls-6 {
        fill: #fff;
        stroke: #fac65e;
        stroke-miterlimit: 10;
      }
    </style>
    <clipPath id="clippath">
      <rect class="cls-2" x="620.97" width="622" height="1015.04"/>
    </clipPath>
    <clipPath id="clippath-1">
      <rect class="cls-2" x="0" y="1" width="616.2" height="1015.04"/>
    </clipPath>
  </defs>
  <g id="Lager_1-2" data-name="Lager 1">
    <g>
      <g class="cls-1">
        <g>
          <g id="_Upprepat_stödraster_" data-name="&amp;lt;Upprepat stödraster&amp;gt;">
            <path class="cls-6" d="M734.41,32.16l-11.15,12.22c-1.82,2-4.92,2.14-6.92.32l-7.68-7.01v39.74c0,3.26-2.28,5.91-5.1,5.91h-48.93c-2.81,0-5.1-2.64-5.1-5.91v-41.14l-9.22,8.41c-2,1.82-5.1,1.68-6.92-.32l-11.15-12.22c-1.82-2-1.68-5.1.32-6.92l26.26-23.95c1.28-1.17,3.02-1.53,4.59-1.11.22.06.45.13.66.23.23,1.89,2.12,3.62,5.15,5.01,4.43,2.03,11.31,3.34,19.03,3.34s14.87-1.36,19.29-3.46c2.84-1.35,4.61-3.01,4.88-4.81.51-.24,1.05-.39,1.6-.45,1.34-.14,2.73.28,3.8,1.25l26.26,23.95c2,1.82,2.14,4.92.32,6.92Z"/>
          </g>
          <g id="_Upprepat_stödraster_-2" data-name="&amp;lt;Upprepat stödraster&amp;gt;">
            <path class="cls-6" d="M860.13,32.16l-11.15,12.22c-1.82,2-4.92,2.14-6.92.32l-7.68-7.01v39.74c0,3.26-2.28,5.91-5.1,5.91h-48.93c-2.81,0-5.1-2.64-5.1-5.91v-41.14l-9.22,8.41c-2,1.82-5.1,1.68-6.92-.32l-11.15-12.22c-1.82-2-1.68-5.1.32-6.92l26.26-23.95c1.28-1.17,3.02-1.53,4.59-1.11.22.06.45.13.66.23.23,1.89,2.12,3.62,5.15,5.01,4.43,2.03,11.31,3.34,19.03,3.34s14.87-1.36,19.29-3.46c2.84-1.35,4.61-3.01,4.88-4.81.51-.24,1.05-.39,1.6-.45,1.34-.14,2.73.28,3.8,1.25l26.26,23.95c2,1.82,2.14,4.92.32,6.92Z"/>
          </g>
          <g id="_Upprepat_stödraster_-3" data-name="&amp;lt;Upprepat stödraster&amp;gt;">
            <path class="cls-6" d="M985.85,32.16l-11.15,12.22c-1.82,2-4.92,2.14-6.92.32l-7.68-7.01v39.74c0,3.26-2.28,5.91-5.1,5.91h-48.93c-2.81,0-5.1-2.64-5.1-5.91v-41.14l-9.22,8.41c-2,1.82-5.1,1.68-6.92-.32l-11.15-12.22c-1.82-2-1.68-5.1.32-6.92l26.26-23.95c1.28-1.17,3.02-1.53,4.59-1.11.22.06.45.13.66.23.23,1.89,2.12,3.62,5.15,5.01,4.43,2.03,11.31,3.34,19.03,3.34s14.87-1.36,19.29-3.46c2.84-1.35,4.61-3.01,4.88-4.81.51-.24,1.05-.39,1.6-.45,1.34-.14,2.73.28,3.8,1.25l26.26,23.95c2,1.82,2.14,4.92.32,6.92Z"/>
          </g>
          <g id="_Upprepat_stödraster_-4" data-name="&amp;lt;Upprepat stödraster&amp;gt;">
            <path class="cls-6" d="M1111.57,32.16l-11.15,12.22c-1.82,2-4.92,2.14-6.92.32l-7.68-7.01v39.74c0,3.26-2.28,5.91-5.1,5.91h-48.93c-2.81,0-5.1-2.64-5.1-5.91v-41.14l-9.22,8.41c-2,1.82-5.1,1.68-6.92-.32l-11.15-12.22c-1.82-2-1.68-5.1.32-6.92l26.26-23.95c1.28-1.17,3.02-1.53,4.59-1.11.22.06.45.13.66.23.23,1.89,2.12,3.62,5.15,5.01,4.43,2.03,11.31,3.34,19.03,3.34s14.87-1.36,19.29-3.46c2.84-1.35,4.61-3.01,4.88-4.81.51-.24,1.05-.39,1.6-.45,1.34-.14,2.73.28,3.8,1.25l26.26,23.95c2,1.82,2.14,4.92.32,6.92Z"/>
          </g>
          <g id="_Upprepat_stödraster_-5" data-name="&amp;lt;Upprepat stödraster&amp;gt;">
            <path class="cls-6" d="M1237.29,32.16l-11.15,12.22c-1.82,2-4.92,2.14-6.92.32l-7.68-7.01v39.74c0,3.26-2.28,5.91-5.1,5.91h-48.93c-2.81,0-5.1-2.64-5.1-5.91v-41.14l-9.22,8.41c-2,1.82-5.1,1.68-6.92-.32l-11.15-12.22c-1.82-2-1.68-5.1.32-6.92l26.26-23.95c1.28-1.17,3.02-1.53,4.59-1.11.22.06.45.13.66.23.23,1.89,2.12,3.62,5.15,5.01,4.43,2.03,11.31,3.34,19.03,3.34s14.87-1.36,19.29-3.46c2.84-1.35,4.61-3.01,4.88-4.81.51-.24,1.05-.39,1.6-.45,1.34-.14,2.73.28,3.8,1.25l26.26,23.95c2,1.82,2.14,4.92.32,6.92Z"/>
          </g>
          <g id="_Upprepat_stödraster_-6" data-name="&amp;lt;Upprepat stödraster&amp;gt;">
            <path class="cls-6" d="M734.41,146.56l-11.15,12.22c-1.82,2-4.92,2.14-6.92.32l-7.68-7.01v39.74c0,3.26-2.28,5.91-5.1,5.91h-48.93c-2.81,0-5.1-2.64-5.1-5.91v-41.14l-9.22,8.41c-2,1.82-5.1,1.68-6.92-.32l-11.15-12.22c-1.82-2-1.68-5.1.32-6.92l26.26-23.95c1.28-1.17,3.02-1.53,4.59-1.11.22.06.45.13.66.23.23,1.89,2.12,3.62,5.15,5.01,4.43,2.03,11.31,3.34,19.03,3.34s14.87-1.36,19.29-3.46c2.84-1.35,4.61-3.01,4.88-4.81.51-.24,1.05-.39,1.6-.45,1.34-.14,2.73.28,3.8,1.25l26.26,23.95c2,1.82,2.14,4.92.32,6.92Z"/>
          </g>
          <g id="_Upprepat_stödraster_-7" data-name="&amp;lt;Upprepat stödraster&amp;gt;">
            <path class="cls-6" d="M860.13,146.56l-11.15,12.22c-1.82,2-4.92,2.14-6.92.32l-7.68-7.01v39.74c0,3.26-2.28,5.91-5.1,5.91h-48.93c-2.81,0-5.1-2.64-5.1-5.91v-41.14l-9.22,8.41c-2,1.82-5.1,1.68-6.92-.32l-11.15-12.22c-1.82-2-1.68-5.1.32-6.92l26.26-23.95c1.28-1.17,3.02-1.53,4.59-1.11.22.06.45.13.66.23.23,1.89,2.12,3.62,5.15,5.01,4.43,2.03,11.31,3.34,19.03,3.34s14.87-1.36,19.29-3.46c2.84-1.35,4.61-3.01,4.88-4.81.51-.24,1.05-.39,1.6-.45,1.34-.14,2.73.28,3.8,1.25l26.26,23.95c2,1.82,2.14,4.92.32,6.92Z"/>
          </g>
          <g id="_Upprepat_stödraster_-8" data-name="&amp;lt;Upprepat stödraster&amp;gt;">
            <path class="cls-6" d="M985.85,146.56l-11.15,12.22c-1.82,2-4.92,2.14-6.92.32l-7.68-7.01v39.74c0,3.26-2.28,5.91-5.1,5.91h-48.93c-2.81,0-5.1-2.64-5.1-5.91v-41.14l-9.22,8.41c-2,1.82-5.1,1.68-6.92-.32l-11.15-12.22c-1.82-2-1.68-5.1.32-6.92l26.26-23.95c1.28-1.17,3.02-1.53,4.59-1.11.22.06.45.13.66.23.23,1.89,2.12,3.62,5.15,5.01,4.43,2.03,11.31,3.34,19.03,3.34s14.87-1.36,19.29-3.46c2.84-1.35,4.61-3.01,4.88-4.81.51-.24,1.05-.39,1.6-.45,1.34-.14,2.73.28,3.8,1.25l26.26,23.95c2,1.82,2.14,4.92.32,6.92Z"/>
          </g>
          <g id="_Upprepat_stödraster_-9" data-name="&amp;lt;Upprepat stödraster&amp;gt;">
            <path class="cls-6" d="M1111.57,146.56l-11.15,12.22c-1.82,2-4.92,2.14-6.92.32l-7.68-7.01v39.74c0,3.26-2.28,5.91-5.1,5.91h-48.93c-2.81,0-5.1-2.64-5.1-5.91v-41.14l-9.22,8.41c-2,1.82-5.1,1.68-6.92-.32l-11.15-12.22c-1.82-2-1.68-5.1.32-6.92l26.26-23.95c1.28-1.17,3.02-1.53,4.59-1.11.22.06.45.13.66.23.23,1.89,2.12,3.62,5.15,5.01,4.43,2.03,11.31,3.34,19.03,3.34s14.87-1.36,19.29-3.46c2.84-1.35,4.61-3.01,4.88-4.81.51-.24,1.05-.39,1.6-.45,1.34-.14,2.73.28,3.8,1.25l26.26,23.95c2,1.82,2.14,4.92.32,6.92Z"/>
          </g>
          <g id="_Upprepat_stödraster_-10" data-name="&amp;lt;Upprepat stödraster&amp;gt;">
            <path class="cls-6" d="M1237.29,146.56l-11.15,12.22c-1.82,2-4.92,2.14-6.92.32l-7.68-7.01v39.74c0,3.26-2.28,5.91-5.1,5.91h-48.93c-2.81,0-5.1-2.64-5.1-5.91v-41.14l-9.22,8.41c-2,1.82-5.1,1.68-6.92-.32l-11.15-12.22c-1.82-2-1.68-5.1.32-6.92l26.26-23.95c1.28-1.17,3.02-1.53,4.59-1.11.22.06.45.13.66.23.23,1.89,2.12,3.62,5.15,5.01,4.43,2.03,11.31,3.34,19.03,3.34s14.87-1.36,19.29-3.46c2.84-1.35,4.61-3.01,4.88-4.81.51-.24,1.05-.39,1.6-.45,1.34-.14,2.73.28,3.8,1.25l26.26,23.95c2,1.82,2.14,4.92.32,6.92Z"/>
          </g>
          <g id="_Upprepat_stödraster_-11" data-name="&amp;lt;Upprepat stödraster&amp;gt;">
            <path class="cls-6" d="M734.41,260.96l-11.15,12.22c-1.82,2-4.92,2.14-6.92.32l-7.68-7.01v39.74c0,3.26-2.28,5.91-5.1,5.91h-48.93c-2.81,0-5.1-2.64-5.1-5.91v-41.14l-9.22,8.41c-2,1.82-5.1,1.68-6.92-.32l-11.15-12.22c-1.82-2-1.68-5.1.32-6.92l26.26-23.95c1.28-1.17,3.02-1.53,4.59-1.11.22.06.45.13.66.23.23,1.89,2.12,3.62,5.15,5.01,4.43,2.03,11.31,3.34,19.03,3.34s14.87-1.36,19.29-3.46c2.84-1.35,4.61-3.01,4.88-4.81.51-.24,1.05-.39,1.6-.45,1.34-.14,2.73.28,3.8,1.25l26.26,23.95c2,1.82,2.14,4.92.32,6.92Z"/>
          </g>
          <g id="_Upprepat_stödraster_-12" data-name="&amp;lt;Upprepat stödraster&amp;gt;">
            <path class="cls-6" d="M860.13,260.96l-11.15,12.22c-1.82,2-4.92,2.14-6.92.32l-7.68-7.01v39.74c0,3.26-2.28,5.91-5.1,5.91h-48.93c-2.81,0-5.1-2.64-5.1-5.91v-41.14l-9.22,8.41c-2,1.82-5.1,1.68-6.92-.32l-11.15-12.22c-1.82-2-1.68-5.1.32-6.92l26.26-23.95c1.28-1.17,3.02-1.53,4.59-1.11.22.06.45.13.66.23.23,1.89,2.12,3.62,5.15,5.01,4.43,2.03,11.31,3.34,19.03,3.34s14.87-1.36,19.29-3.46c2.84-1.35,4.61-3.01,4.88-4.81.51-.24,1.05-.39,1.6-.45,1.34-.14,2.73.28,3.8,1.25l26.26,23.95c2,1.82,2.14,4.92.32,6.92Z"/>
          </g>
          <g id="_Upprepat_stödraster_-13" data-name="&amp;lt;Upprepat stödraster&amp;gt;">
            <path class="cls-6" d="M985.85,260.96l-11.15,12.22c-1.82,2-4.92,2.14-6.92.32l-7.68-7.01v39.74c0,3.26-2.28,5.91-5.1,5.91h-48.93c-2.81,0-5.1-2.64-5.1-5.91v-41.14l-9.22,8.41c-2,1.82-5.1,1.68-6.92-.32l-11.15-12.22c-1.82-2-1.68-5.1.32-6.92l26.26-23.95c1.28-1.17,3.02-1.53,4.59-1.11.22.06.45.13.66.23.23,1.89,2.12,3.62,5.15,5.01,4.43,2.03,11.31,3.34,19.03,3.34s14.87-1.36,19.29-3.46c2.84-1.35,4.61-3.01,4.88-4.81.51-.24,1.05-.39,1.6-.45,1.34-.14,2.73.28,3.8,1.25l26.26,23.95c2,1.82,2.14,4.92.32,6.92Z"/>
          </g>
          <g id="_Upprepat_stödraster_-14" data-name="&amp;lt;Upprepat stödraster&amp;gt;">
            <path class="cls-6" d="M1111.57,260.96l-11.15,12.22c-1.82,2-4.92,2.14-6.92.32l-7.68-7.01v39.74c0,3.26-2.28,5.91-5.1,5.91h-48.93c-2.81,0-5.1-2.64-5.1-5.91v-41.14l-9.22,8.41c-2,1.82-5.1,1.68-6.92-.32l-11.15-12.22c-1.82-2-1.68-5.1.32-6.92l26.26-23.95c1.28-1.17,3.02-1.53,4.59-1.11.22.06.45.13.66.23.23,1.89,2.12,3.62,5.15,5.01,4.43,2.03,11.31,3.34,19.03,3.34s14.87-1.36,19.29-3.46c2.84-1.35,4.61-3.01,4.88-4.81.51-.24,1.05-.39,1.6-.45,1.34-.14,2.73.28,3.8,1.25l26.26,23.95c2,1.82,2.14,4.92.32,6.92Z"/>
          </g>
          <g id="_Upprepat_stödraster_-15" data-name="&amp;lt;Upprepat stödraster&amp;gt;">
            <path class="cls-6" d="M1237.29,260.96l-11.15,12.22c-1.82,2-4.92,2.14-6.92.32l-7.68-7.01v39.74c0,3.26-2.28,5.91-5.1,5.91h-48.93c-2.81,0-5.1-2.64-5.1-5.91v-41.14l-9.22,8.41c-2,1.82-5.1,1.68-6.92-.32l-11.15-12.22c-1.82-2-1.68-5.1.32-6.92l26.26-23.95c1.28-1.17,3.02-1.53,4.59-1.11.22.06.45.13.66.23.23,1.89,2.12,3.62,5.15,5.01,4.43,2.03,11.31,3.34,19.03,3.34s14.87-1.36,19.29-3.46c2.84-1.35,4.61-3.01,4.88-4.81.51-.24,1.05-.39,1.6-.45,1.34-.14,2.73.28,3.8,1.25l26.26,23.95c2,1.82,2.14,4.92.32,6.92Z"/>
          </g>
          <g id="_Upprepat_stödraster_-16" data-name="&amp;lt;Upprepat stödraster&amp;gt;">
            <path class="cls-6" d="M734.41,375.35l-11.15,12.22c-1.82,2-4.92,2.14-6.92.32l-7.68-7.01v39.74c0,3.26-2.28,5.91-5.1,5.91h-48.93c-2.81,0-5.1-2.64-5.1-5.91v-41.14l-9.22,8.41c-2,1.82-5.1,1.68-6.92-.32l-11.15-12.22c-1.82-2-1.68-5.1.32-6.92l26.26-23.95c1.28-1.17,3.02-1.53,4.59-1.11.22.06.45.13.66.23.23,1.89,2.12,3.62,5.15,5.01,4.43,2.03,11.31,3.34,19.03,3.34s14.87-1.36,19.29-3.46c2.84-1.35,4.61-3.01,4.88-4.81.51-.24,1.05-.39,1.6-.45,1.34-.14,2.73.28,3.8,1.25l26.26,23.95c2,1.82,2.14,4.92.32,6.92Z"/>
          </g>
          <g id="_Upprepat_stödraster_-17" data-name="&amp;lt;Upprepat stödraster&amp;gt;">
            <path class="cls-6" d="M860.13,375.35l-11.15,12.22c-1.82,2-4.92,2.14-6.92.32l-7.68-7.01v39.74c0,3.26-2.28,5.91-5.1,5.91h-48.93c-2.81,0-5.1-2.64-5.1-5.91v-41.14l-9.22,8.41c-2,1.82-5.1,1.68-6.92-.32l-11.15-12.22c-1.82-2-1.68-5.1.32-6.92l26.26-23.95c1.28-1.17,3.02-1.53,4.59-1.11.22.06.45.13.66.23.23,1.89,2.12,3.62,5.15,5.01,4.43,2.03,11.31,3.34,19.03,3.34s14.87-1.36,19.29-3.46c2.84-1.35,4.61-3.01,4.88-4.81.51-.24,1.05-.39,1.6-.45,1.34-.14,2.73.28,3.8,1.25l26.26,23.95c2,1.82,2.14,4.92.32,6.92Z"/>
          </g>
          <g id="_Upprepat_stödraster_-18" data-name="&amp;lt;Upprepat stödraster&amp;gt;">
            <path class="cls-6" d="M985.85,375.35l-11.15,12.22c-1.82,2-4.92,2.14-6.92.32l-7.68-7.01v39.74c0,3.26-2.28,5.91-5.1,5.91h-48.93c-2.81,0-5.1-2.64-5.1-5.91v-41.14l-9.22,8.41c-2,1.82-5.1,1.68-6.92-.32l-11.15-12.22c-1.82-2-1.68-5.1.32-6.92l26.26-23.95c1.28-1.17,3.02-1.53,4.59-1.11.22.06.45.13.66.23.23,1.89,2.12,3.62,5.15,5.01,4.43,2.03,11.31,3.34,19.03,3.34s14.87-1.36,19.29-3.46c2.84-1.35,4.61-3.01,4.88-4.81.51-.24,1.05-.39,1.6-.45,1.34-.14,2.73.28,3.8,1.25l26.26,23.95c2,1.82,2.14,4.92.32,6.92Z"/>
          </g>
          <g id="_Upprepat_stödraster_-19" data-name="&amp;lt;Upprepat stödraster&amp;gt;">
            <path class="cls-6" d="M1111.57,375.35l-11.15,12.22c-1.82,2-4.92,2.14-6.92.32l-7.68-7.01v39.74c0,3.26-2.28,5.91-5.1,5.91h-48.93c-2.81,0-5.1-2.64-5.1-5.91v-41.14l-9.22,8.41c-2,1.82-5.1,1.68-6.92-.32l-11.15-12.22c-1.82-2-1.68-5.1.32-6.92l26.26-23.95c1.28-1.17,3.02-1.53,4.59-1.11.22.06.45.13.66.23.23,1.89,2.12,3.62,5.15,5.01,4.43,2.03,11.31,3.34,19.03,3.34s14.87-1.36,19.29-3.46c2.84-1.35,4.61-3.01,4.88-4.81.51-.24,1.05-.39,1.6-.45,1.34-.14,2.73.28,3.8,1.25l26.26,23.95c2,1.82,2.14,4.92.32,6.92Z"/>
          </g>
          <g id="_Upprepat_stödraster_-20" data-name="&amp;lt;Upprepat stödraster&amp;gt;">
            <path class="cls-6" d="M1237.29,375.35l-11.15,12.22c-1.82,2-4.92,2.14-6.92.32l-7.68-7.01v39.74c0,3.26-2.28,5.91-5.1,5.91h-48.93c-2.81,0-5.1-2.64-5.1-5.91v-41.14l-9.22,8.41c-2,1.82-5.1,1.68-6.92-.32l-11.15-12.22c-1.82-2-1.68-5.1.32-6.92l26.26-23.95c1.28-1.17,3.02-1.53,4.59-1.11.22.06.45.13.66.23.23,1.89,2.12,3.62,5.15,5.01,4.43,2.03,11.31,3.34,19.03,3.34s14.87-1.36,19.29-3.46c2.84-1.35,4.61-3.01,4.88-4.81.51-.24,1.05-.39,1.6-.45,1.34-.14,2.73.28,3.8,1.25l26.26,23.95c2,1.82,2.14,4.92.32,6.92Z"/>
          </g>
          <g id="_Upprepat_stödraster_-21" data-name="&amp;lt;Upprepat stödraster&amp;gt;">
            <path class="cls-6" d="M734.41,489.75l-11.15,12.22c-1.82,2-4.92,2.14-6.92.32l-7.68-7.01v39.74c0,3.26-2.28,5.91-5.1,5.91h-48.93c-2.81,0-5.1-2.64-5.1-5.91v-41.14l-9.22,8.41c-2,1.82-5.1,1.68-6.92-.32l-11.15-12.22c-1.82-2-1.68-5.1.32-6.92l26.26-23.95c1.28-1.17,3.02-1.53,4.59-1.11.22.06.45.13.66.23.23,1.89,2.12,3.62,5.15,5.01,4.43,2.03,11.31,3.34,19.03,3.34s14.87-1.36,19.29-3.46c2.84-1.35,4.61-3.01,4.88-4.81.51-.24,1.05-.39,1.6-.45,1.34-.14,2.73.28,3.8,1.25l26.26,23.95c2,1.82,2.14,4.92.32,6.92Z"/>
          </g>
          <g id="_Upprepat_stödraster_-22" data-name="&amp;lt;Upprepat stödraster&amp;gt;">
            <path class="cls-6" d="M860.13,489.75l-11.15,12.22c-1.82,2-4.92,2.14-6.92.32l-7.68-7.01v39.74c0,3.26-2.28,5.91-5.1,5.91h-48.93c-2.81,0-5.1-2.64-5.1-5.91v-41.14l-9.22,8.41c-2,1.82-5.1,1.68-6.92-.32l-11.15-12.22c-1.82-2-1.68-5.1.32-6.92l26.26-23.95c1.28-1.17,3.02-1.53,4.59-1.11.22.06.45.13.66.23.23,1.89,2.12,3.62,5.15,5.01,4.43,2.03,11.31,3.34,19.03,3.34s14.87-1.36,19.29-3.46c2.84-1.35,4.61-3.01,4.88-4.81.51-.24,1.05-.39,1.6-.45,1.34-.14,2.73.28,3.8,1.25l26.26,23.95c2,1.82,2.14,4.92.32,6.92Z"/>
          </g>
          <g id="_Upprepat_stödraster_-23" data-name="&amp;lt;Upprepat stödraster&amp;gt;">
            <path class="cls-6" d="M985.85,489.75l-11.15,12.22c-1.82,2-4.92,2.14-6.92.32l-7.68-7.01v39.74c0,3.26-2.28,5.91-5.1,5.91h-48.93c-2.81,0-5.1-2.64-5.1-5.91v-41.14l-9.22,8.41c-2,1.82-5.1,1.68-6.92-.32l-11.15-12.22c-1.82-2-1.68-5.1.32-6.92l26.26-23.95c1.28-1.17,3.02-1.53,4.59-1.11.22.06.45.13.66.23.23,1.89,2.12,3.62,5.15,5.01,4.43,2.03,11.31,3.34,19.03,3.34s14.87-1.36,19.29-3.46c2.84-1.35,4.61-3.01,4.88-4.81.51-.24,1.05-.39,1.6-.45,1.34-.14,2.73.28,3.8,1.25l26.26,23.95c2,1.82,2.14,4.92.32,6.92Z"/>
          </g>
          <g id="_Upprepat_stödraster_-24" data-name="&amp;lt;Upprepat stödraster&amp;gt;">
            <path class="cls-6" d="M1111.57,489.75l-11.15,12.22c-1.82,2-4.92,2.14-6.92.32l-7.68-7.01v39.74c0,3.26-2.28,5.91-5.1,5.91h-48.93c-2.81,0-5.1-2.64-5.1-5.91v-41.14l-9.22,8.41c-2,1.82-5.1,1.68-6.92-.32l-11.15-12.22c-1.82-2-1.68-5.1.32-6.92l26.26-23.95c1.28-1.17,3.02-1.53,4.59-1.11.22.06.45.13.66.23.23,1.89,2.12,3.62,5.15,5.01,4.43,2.03,11.31,3.34,19.03,3.34s14.87-1.36,19.29-3.46c2.84-1.35,4.61-3.01,4.88-4.81.51-.24,1.05-.39,1.6-.45,1.34-.14,2.73.28,3.8,1.25l26.26,23.95c2,1.82,2.14,4.92.32,6.92Z"/>
          </g>
          <g id="_Upprepat_stödraster_-25" data-name="&amp;lt;Upprepat stödraster&amp;gt;">
            <path class="cls-6" d="M1237.29,489.75l-11.15,12.22c-1.82,2-4.92,2.14-6.92.32l-7.68-7.01v39.74c0,3.26-2.28,5.91-5.1,5.91h-48.93c-2.81,0-5.1-2.64-5.1-5.91v-41.14l-9.22,8.41c-2,1.82-5.1,1.68-6.92-.32l-11.15-12.22c-1.82-2-1.68-5.1.32-6.92l26.26-23.95c1.28-1.17,3.02-1.53,4.59-1.11.22.06.45.13.66.23.23,1.89,2.12,3.62,5.15,5.01,4.43,2.03,11.31,3.34,19.03,3.34s14.87-1.36,19.29-3.46c2.84-1.35,4.61-3.01,4.88-4.81.51-.24,1.05-.39,1.6-.45,1.34-.14,2.73.28,3.8,1.25l26.26,23.95c2,1.82,2.14,4.92.32,6.92Z"/>
          </g>
          <g id="_Upprepat_stödraster_-26" data-name="&amp;lt;Upprepat stödraster&amp;gt;">
            <path class="cls-6" d="M734.41,604.15l-11.15,12.22c-1.82,2-4.92,2.14-6.92.32l-7.68-7.01v39.74c0,3.26-2.28,5.91-5.1,5.91h-48.93c-2.81,0-5.1-2.64-5.1-5.91v-41.14l-9.22,8.41c-2,1.82-5.1,1.68-6.92-.32l-11.15-12.22c-1.82-2-1.68-5.1.32-6.92l26.26-23.95c1.28-1.17,3.02-1.53,4.59-1.11.22.06.45.13.66.23.23,1.89,2.12,3.62,5.15,5.01,4.43,2.03,11.31,3.34,19.03,3.34s14.87-1.36,19.29-3.46c2.84-1.35,4.61-3.01,4.88-4.81.51-.24,1.05-.39,1.6-.45,1.34-.14,2.73.28,3.8,1.25l26.26,23.95c2,1.82,2.14,4.92.32,6.92Z"/>
          </g>
          <g id="_Upprepat_stödraster_-27" data-name="&amp;lt;Upprepat stödraster&amp;gt;">
            <path class="cls-6" d="M860.13,604.15l-11.15,12.22c-1.82,2-4.92,2.14-6.92.32l-7.68-7.01v39.74c0,3.26-2.28,5.91-5.1,5.91h-48.93c-2.81,0-5.1-2.64-5.1-5.91v-41.14l-9.22,8.41c-2,1.82-5.1,1.68-6.92-.32l-11.15-12.22c-1.82-2-1.68-5.1.32-6.92l26.26-23.95c1.28-1.17,3.02-1.53,4.59-1.11.22.06.45.13.66.23.23,1.89,2.12,3.62,5.15,5.01,4.43,2.03,11.31,3.34,19.03,3.34s14.87-1.36,19.29-3.46c2.84-1.35,4.61-3.01,4.88-4.81.51-.24,1.05-.39,1.6-.45,1.34-.14,2.73.28,3.8,1.25l26.26,23.95c2,1.82,2.14,4.92.32,6.92Z"/>
          </g>
          <g id="_Upprepat_stödraster_-28" data-name="&amp;lt;Upprepat stödraster&amp;gt;">
            <path class="cls-6" d="M985.85,604.15l-11.15,12.22c-1.82,2-4.92,2.14-6.92.32l-7.68-7.01v39.74c0,3.26-2.28,5.91-5.1,5.91h-48.93c-2.81,0-5.1-2.64-5.1-5.91v-41.14l-9.22,8.41c-2,1.82-5.1,1.68-6.92-.32l-11.15-12.22c-1.82-2-1.68-5.1.32-6.92l26.26-23.95c1.28-1.17,3.02-1.53,4.59-1.11.22.06.45.13.66.23.23,1.89,2.12,3.62,5.15,5.01,4.43,2.03,11.31,3.34,19.03,3.34s14.87-1.36,19.29-3.46c2.84-1.35,4.61-3.01,4.88-4.81.51-.24,1.05-.39,1.6-.45,1.34-.14,2.73.28,3.8,1.25l26.26,23.95c2,1.82,2.14,4.92.32,6.92Z"/>
          </g>
          <g id="_Upprepat_stödraster_-29" data-name="&amp;lt;Upprepat stödraster&amp;gt;">
            <path class="cls-6" d="M1111.57,604.15l-11.15,12.22c-1.82,2-4.92,2.14-6.92.32l-7.68-7.01v39.74c0,3.26-2.28,5.91-5.1,5.91h-48.93c-2.81,0-5.1-2.64-5.1-5.91v-41.14l-9.22,8.41c-2,1.82-5.1,1.68-6.92-.32l-11.15-12.22c-1.82-2-1.68-5.1.32-6.92l26.26-23.95c1.28-1.17,3.02-1.53,4.59-1.11.22.06.45.13.66.23.23,1.89,2.12,3.62,5.15,5.01,4.43,2.03,11.31,3.34,19.03,3.34s14.87-1.36,19.29-3.46c2.84-1.35,4.61-3.01,4.88-4.81.51-.24,1.05-.39,1.6-.45,1.34-.14,2.73.28,3.8,1.25l26.26,23.95c2,1.82,2.14,4.92.32,6.92Z"/>
          </g>
          <g id="_Upprepat_stödraster_-30" data-name="&amp;lt;Upprepat stödraster&amp;gt;">
            <path class="cls-6" d="M1237.29,604.15l-11.15,12.22c-1.82,2-4.92,2.14-6.92.32l-7.68-7.01v39.74c0,3.26-2.28,5.91-5.1,5.91h-48.93c-2.81,0-5.1-2.64-5.1-5.91v-41.14l-9.22,8.41c-2,1.82-5.1,1.68-6.92-.32l-11.15-12.22c-1.82-2-1.68-5.1.32-6.92l26.26-23.95c1.28-1.17,3.02-1.53,4.59-1.11.22.06.45.13.66.23.23,1.89,2.12,3.62,5.15,5.01,4.43,2.03,11.31,3.34,19.03,3.34s14.87-1.36,19.29-3.46c2.84-1.35,4.61-3.01,4.88-4.81.51-.24,1.05-.39,1.6-.45,1.34-.14,2.73.28,3.8,1.25l26.26,23.95c2,1.82,2.14,4.92.32,6.92Z"/>
          </g>
          <g id="_Upprepat_stödraster_-31" data-name="&amp;lt;Upprepat stödraster&amp;gt;">
            <path class="cls-6" d="M734.41,718.55l-11.15,12.22c-1.82,2-4.92,2.14-6.92.32l-7.68-7.01v39.74c0,3.26-2.28,5.91-5.1,5.91h-48.93c-2.81,0-5.1-2.64-5.1-5.91v-41.14l-9.22,8.41c-2,1.82-5.1,1.68-6.92-.32l-11.15-12.22c-1.82-2-1.68-5.1.32-6.92l26.26-23.95c1.28-1.17,3.02-1.53,4.59-1.11.22.06.45.13.66.23.23,1.89,2.12,3.62,5.15,5.01,4.43,2.03,11.31,3.34,19.03,3.34s14.87-1.36,19.29-3.46c2.84-1.35,4.61-3.01,4.88-4.81.51-.24,1.05-.39,1.6-.45,1.34-.14,2.73.28,3.8,1.25l26.26,23.95c2,1.82,2.14,4.92.32,6.92Z"/>
          </g>
          <g id="_Upprepat_stödraster_-32" data-name="&amp;lt;Upprepat stödraster&amp;gt;">
            <path class="cls-6" d="M860.13,718.55l-11.15,12.22c-1.82,2-4.92,2.14-6.92.32l-7.68-7.01v39.74c0,3.26-2.28,5.91-5.1,5.91h-48.93c-2.81,0-5.1-2.64-5.1-5.91v-41.14l-9.22,8.41c-2,1.82-5.1,1.68-6.92-.32l-11.15-12.22c-1.82-2-1.68-5.1.32-6.92l26.26-23.95c1.28-1.17,3.02-1.53,4.59-1.11.22.06.45.13.66.23.23,1.89,2.12,3.62,5.15,5.01,4.43,2.03,11.31,3.34,19.03,3.34s14.87-1.36,19.29-3.46c2.84-1.35,4.61-3.01,4.88-4.81.51-.24,1.05-.39,1.6-.45,1.34-.14,2.73.28,3.8,1.25l26.26,23.95c2,1.82,2.14,4.92.32,6.92Z"/>
          </g>
          <g id="_Upprepat_stödraster_-33" data-name="&amp;lt;Upprepat stödraster&amp;gt;">
            <path class="cls-6" d="M985.85,718.55l-11.15,12.22c-1.82,2-4.92,2.14-6.92.32l-7.68-7.01v39.74c0,3.26-2.28,5.91-5.1,5.91h-48.93c-2.81,0-5.1-2.64-5.1-5.91v-41.14l-9.22,8.41c-2,1.82-5.1,1.68-6.92-.32l-11.15-12.22c-1.82-2-1.68-5.1.32-6.92l26.26-23.95c1.28-1.17,3.02-1.53,4.59-1.11.22.06.45.13.66.23.23,1.89,2.12,3.62,5.15,5.01,4.43,2.03,11.31,3.34,19.03,3.34s14.87-1.36,19.29-3.46c2.84-1.35,4.61-3.01,4.88-4.81.51-.24,1.05-.39,1.6-.45,1.34-.14,2.73.28,3.8,1.25l26.26,23.95c2,1.82,2.14,4.92.32,6.92Z"/>
          </g>
          <g id="_Upprepat_stödraster_-34" data-name="&amp;lt;Upprepat stödraster&amp;gt;">
            <path class="cls-6" d="M1111.57,718.55l-11.15,12.22c-1.82,2-4.92,2.14-6.92.32l-7.68-7.01v39.74c0,3.26-2.28,5.91-5.1,5.91h-48.93c-2.81,0-5.1-2.64-5.1-5.91v-41.14l-9.22,8.41c-2,1.82-5.1,1.68-6.92-.32l-11.15-12.22c-1.82-2-1.68-5.1.32-6.92l26.26-23.95c1.28-1.17,3.02-1.53,4.59-1.11.22.06.45.13.66.23.23,1.89,2.12,3.62,5.15,5.01,4.43,2.03,11.31,3.34,19.03,3.34s14.87-1.36,19.29-3.46c2.84-1.35,4.61-3.01,4.88-4.81.51-.24,1.05-.39,1.6-.45,1.34-.14,2.73.28,3.8,1.25l26.26,23.95c2,1.82,2.14,4.92.32,6.92Z"/>
          </g>
          <g id="_Upprepat_stödraster_-35" data-name="&amp;lt;Upprepat stödraster&amp;gt;">
            <path class="cls-6" d="M1237.29,718.55l-11.15,12.22c-1.82,2-4.92,2.14-6.92.32l-7.68-7.01v39.74c0,3.26-2.28,5.91-5.1,5.91h-48.93c-2.81,0-5.1-2.64-5.1-5.91v-41.14l-9.22,8.41c-2,1.82-5.1,1.68-6.92-.32l-11.15-12.22c-1.82-2-1.68-5.1.32-6.92l26.26-23.95c1.28-1.17,3.02-1.53,4.59-1.11.22.06.45.13.66.23.23,1.89,2.12,3.62,5.15,5.01,4.43,2.03,11.31,3.34,19.03,3.34s14.87-1.36,19.29-3.46c2.84-1.35,4.61-3.01,4.88-4.81.51-.24,1.05-.39,1.6-.45,1.34-.14,2.73.28,3.8,1.25l26.26,23.95c2,1.82,2.14,4.92.32,6.92Z"/>
          </g>
          <g id="_Upprepat_stödraster_-36" data-name="&amp;lt;Upprepat stödraster&amp;gt;">
            <path class="cls-6" d="M734.41,832.95l-11.15,12.22c-1.82,2-4.92,2.14-6.92.32l-7.68-7.01v39.74c0,3.26-2.28,5.91-5.1,5.91h-48.93c-2.81,0-5.1-2.64-5.1-5.91v-41.14l-9.22,8.41c-2,1.82-5.1,1.68-6.92-.32l-11.15-12.22c-1.82-2-1.68-5.1.32-6.92l26.26-23.95c1.28-1.17,3.02-1.53,4.59-1.11.22.06.45.13.66.23.23,1.89,2.12,3.62,5.15,5.01,4.43,2.03,11.31,3.34,19.03,3.34s14.87-1.36,19.29-3.46c2.84-1.35,4.61-3.01,4.88-4.81.51-.24,1.05-.39,1.6-.45,1.34-.14,2.73.28,3.8,1.25l26.26,23.95c2,1.82,2.14,4.92.32,6.92Z"/>
          </g>
          <g id="_Upprepat_stödraster_-37" data-name="&amp;lt;Upprepat stödraster&amp;gt;">
            <path class="cls-6" d="M860.13,832.95l-11.15,12.22c-1.82,2-4.92,2.14-6.92.32l-7.68-7.01v39.74c0,3.26-2.28,5.91-5.1,5.91h-48.93c-2.81,0-5.1-2.64-5.1-5.91v-41.14l-9.22,8.41c-2,1.82-5.1,1.68-6.92-.32l-11.15-12.22c-1.82-2-1.68-5.1.32-6.92l26.26-23.95c1.28-1.17,3.02-1.53,4.59-1.11.22.06.45.13.66.23.23,1.89,2.12,3.62,5.15,5.01,4.43,2.03,11.31,3.34,19.03,3.34s14.87-1.36,19.29-3.46c2.84-1.35,4.61-3.01,4.88-4.81.51-.24,1.05-.39,1.6-.45,1.34-.14,2.73.28,3.8,1.25l26.26,23.95c2,1.82,2.14,4.92.32,6.92Z"/>
          </g>
          <g id="_Upprepat_stödraster_-38" data-name="&amp;lt;Upprepat stödraster&amp;gt;">
            <path class="cls-6" d="M985.85,832.95l-11.15,12.22c-1.82,2-4.92,2.14-6.92.32l-7.68-7.01v39.74c0,3.26-2.28,5.91-5.1,5.91h-48.93c-2.81,0-5.1-2.64-5.1-5.91v-41.14l-9.22,8.41c-2,1.82-5.1,1.68-6.92-.32l-11.15-12.22c-1.82-2-1.68-5.1.32-6.92l26.26-23.95c1.28-1.17,3.02-1.53,4.59-1.11.22.06.45.13.66.23.23,1.89,2.12,3.62,5.15,5.01,4.43,2.03,11.31,3.34,19.03,3.34s14.87-1.36,19.29-3.46c2.84-1.35,4.61-3.01,4.88-4.81.51-.24,1.05-.39,1.6-.45,1.34-.14,2.73.28,3.8,1.25l26.26,23.95c2,1.82,2.14,4.92.32,6.92Z"/>
          </g>
          <g id="_Upprepat_stödraster_-39" data-name="&amp;lt;Upprepat stödraster&amp;gt;">
            <path class="cls-6" d="M1111.57,832.95l-11.15,12.22c-1.82,2-4.92,2.14-6.92.32l-7.68-7.01v39.74c0,3.26-2.28,5.91-5.1,5.91h-48.93c-2.81,0-5.1-2.64-5.1-5.91v-41.14l-9.22,8.41c-2,1.82-5.1,1.68-6.92-.32l-11.15-12.22c-1.82-2-1.68-5.1.32-6.92l26.26-23.95c1.28-1.17,3.02-1.53,4.59-1.11.22.06.45.13.66.23.23,1.89,2.12,3.62,5.15,5.01,4.43,2.03,11.31,3.34,19.03,3.34s14.87-1.36,19.29-3.46c2.84-1.35,4.61-3.01,4.88-4.81.51-.24,1.05-.39,1.6-.45,1.34-.14,2.73.28,3.8,1.25l26.26,23.95c2,1.82,2.14,4.92.32,6.92Z"/>
          </g>
          <g id="_Upprepat_stödraster_-40" data-name="&amp;lt;Upprepat stödraster&amp;gt;">
            <path class="cls-6" d="M1237.29,832.95l-11.15,12.22c-1.82,2-4.92,2.14-6.92.32l-7.68-7.01v39.74c0,3.26-2.28,5.91-5.1,5.91h-48.93c-2.81,0-5.1-2.64-5.1-5.91v-41.14l-9.22,8.41c-2,1.82-5.1,1.68-6.92-.32l-11.15-12.22c-1.82-2-1.68-5.1.32-6.92l26.26-23.95c1.28-1.17,3.02-1.53,4.59-1.11.22.06.45.13.66.23.23,1.89,2.12,3.62,5.15,5.01,4.43,2.03,11.31,3.34,19.03,3.34s14.87-1.36,19.29-3.46c2.84-1.35,4.61-3.01,4.88-4.81.51-.24,1.05-.39,1.6-.45,1.34-.14,2.73.28,3.8,1.25l26.26,23.95c2,1.82,2.14,4.92.32,6.92Z"/>
          </g>
          <g id="_Upprepat_stödraster_-41" data-name="&amp;lt;Upprepat stödraster&amp;gt;">
            <path class="cls-6" d="M734.41,947.35l-11.15,12.22c-1.82,2-4.92,2.14-6.92.32l-7.68-7.01v39.74c0,3.26-2.28,5.91-5.1,5.91h-48.93c-2.81,0-5.1-2.64-5.1-5.91v-41.14l-9.22,8.41c-2,1.82-5.1,1.68-6.92-.32l-11.15-12.22c-1.82-2-1.68-5.1.32-6.92l26.26-23.95c1.28-1.17,3.02-1.53,4.59-1.11.22.06.45.13.66.23.23,1.89,2.12,3.62,5.15,5.01,4.43,2.03,11.31,3.34,19.03,3.34s14.87-1.36,19.29-3.46c2.84-1.35,4.61-3.01,4.88-4.81.51-.24,1.05-.39,1.6-.45,1.34-.14,2.73.28,3.8,1.25l26.26,23.95c2,1.82,2.14,4.92.32,6.92Z"/>
          </g>
          <g id="_Upprepat_stödraster_-42" data-name="&amp;lt;Upprepat stödraster&amp;gt;">
            <path class="cls-6" d="M860.13,947.35l-11.15,12.22c-1.82,2-4.92,2.14-6.92.32l-7.68-7.01v39.74c0,3.26-2.28,5.91-5.1,5.91h-48.93c-2.81,0-5.1-2.64-5.1-5.91v-41.14l-9.22,8.41c-2,1.82-5.1,1.68-6.92-.32l-11.15-12.22c-1.82-2-1.68-5.1.32-6.92l26.26-23.95c1.28-1.17,3.02-1.53,4.59-1.11.22.06.45.13.66.23.23,1.89,2.12,3.62,5.15,5.01,4.43,2.03,11.31,3.34,19.03,3.34s14.87-1.36,19.29-3.46c2.84-1.35,4.61-3.01,4.88-4.81.51-.24,1.05-.39,1.6-.45,1.34-.14,2.73.28,3.8,1.25l26.26,23.95c2,1.82,2.14,4.92.32,6.92Z"/>
          </g>
          <g id="_Upprepat_stödraster_-43" data-name="&amp;lt;Upprepat stödraster&amp;gt;">
            <path class="cls-6" d="M985.85,947.35l-11.15,12.22c-1.82,2-4.92,2.14-6.92.32l-7.68-7.01v39.74c0,3.26-2.28,5.91-5.1,5.91h-48.93c-2.81,0-5.1-2.64-5.1-5.91v-41.14l-9.22,8.41c-2,1.82-5.1,1.68-6.92-.32l-11.15-12.22c-1.82-2-1.68-5.1.32-6.92l26.26-23.95c1.28-1.17,3.02-1.53,4.59-1.11.22.06.45.13.66.23.23,1.89,2.12,3.62,5.15,5.01,4.43,2.03,11.31,3.34,19.03,3.34s14.87-1.36,19.29-3.46c2.84-1.35,4.61-3.01,4.88-4.81.51-.24,1.05-.39,1.6-.45,1.34-.14,2.73.28,3.8,1.25l26.26,23.95c2,1.82,2.14,4.92.32,6.92Z"/>
          </g>
          <g id="_Upprepat_stödraster_-44" data-name="&amp;lt;Upprepat stödraster&amp;gt;">
            <path class="cls-6" d="M1111.57,947.35l-11.15,12.22c-1.82,2-4.92,2.14-6.92.32l-7.68-7.01v39.74c0,3.26-2.28,5.91-5.1,5.91h-48.93c-2.81,0-5.1-2.64-5.1-5.91v-41.14l-9.22,8.41c-2,1.82-5.1,1.68-6.92-.32l-11.15-12.22c-1.82-2-1.68-5.1.32-6.92l26.26-23.95c1.28-1.17,3.02-1.53,4.59-1.11.22.06.45.13.66.23.23,1.89,2.12,3.62,5.15,5.01,4.43,2.03,11.31,3.34,19.03,3.34s14.87-1.36,19.29-3.46c2.84-1.35,4.61-3.01,4.88-4.81.51-.24,1.05-.39,1.6-.45,1.34-.14,2.73.28,3.8,1.25l26.26,23.95c2,1.82,2.14,4.92.32,6.92Z"/>
          </g>
          <g id="_Upprepat_stödraster_-45" data-name="&amp;lt;Upprepat stödraster&amp;gt;">
            <path class="cls-6" d="M1237.29,947.35l-11.15,12.22c-1.82,2-4.92,2.14-6.92.32l-7.68-7.01v39.74c0,3.26-2.28,5.91-5.1,5.91h-48.93c-2.81,0-5.1-2.64-5.1-5.91v-41.14l-9.22,8.41c-2,1.82-5.1,1.68-6.92-.32l-11.15-12.22c-1.82-2-1.68-5.1.32-6.92l26.26-23.95c1.28-1.17,3.02-1.53,4.59-1.11.22.06.45.13.66.23.23,1.89,2.12,3.62,5.15,5.01,4.43,2.03,11.31,3.34,19.03,3.34s14.87-1.36,19.29-3.46c2.84-1.35,4.61-3.01,4.88-4.81.51-.24,1.05-.39,1.6-.45,1.34-.14,2.73.28,3.8,1.25l26.26,23.95c2,1.82,2.14,4.92.32,6.92Z"/>
          </g>
        </g>
      </g>
      <g class="cls-5">
        <g>
          <g id="_Upprepat_stödraster_-46" data-name="&amp;lt;Upprepat stödraster&amp;gt;">
            <path class="cls-3" d="M113.44,33.16l-11.15,12.22c-1.82,2-4.92,2.14-6.92.32l-7.68-7.01v39.74c0,3.26-2.28,5.91-5.1,5.91h-48.93c-2.81,0-5.1-2.64-5.1-5.91v-41.14l-9.22,8.41c-2,1.82-5.1,1.68-6.92-.32L1.28,33.16c-1.82-2-1.68-5.1.32-6.92L27.86,2.28c1.28-1.17,3.02-1.53,4.59-1.11.22.06.45.13.66.23.23,1.89,2.12,3.62,5.15,5.01,4.43,2.03,11.31,3.34,19.03,3.34s14.87-1.36,19.29-3.46c2.84-1.35,4.61-3.01,4.88-4.81.51-.24,1.05-.39,1.6-.45,1.34-.14,2.73.28,3.8,1.25l26.26,23.95c2,1.82,2.14,4.92.32,6.92Z"/>
          </g>
          <g id="_Upprepat_stödraster_-47" data-name="&amp;lt;Upprepat stödraster&amp;gt;">
            <path class="cls-3" d="M238.16,33.16l-11.15,12.22c-1.82,2-4.92,2.14-6.92.32l-7.68-7.01v39.74c0,3.26-2.28,5.91-5.1,5.91h-48.93c-2.81,0-5.1-2.64-5.1-5.91v-41.14l-9.22,8.41c-2,1.82-5.1,1.68-6.92-.32l-11.15-12.22c-1.82-2-1.68-5.1.32-6.92l26.26-23.95c1.28-1.17,3.02-1.53,4.59-1.11.22.06.45.13.66.23.23,1.89,2.12,3.62,5.15,5.01,4.43,2.03,11.31,3.34,19.03,3.34s14.87-1.36,19.29-3.46c2.84-1.35,4.61-3.01,4.88-4.81.51-.24,1.05-.39,1.6-.45,1.34-.14,2.73.28,3.8,1.25l26.26,23.95c2,1.82,2.14,4.92.32,6.92Z"/>
          </g>
          <g id="_Upprepat_stödraster_-48" data-name="&amp;lt;Upprepat stödraster&amp;gt;">
            <path class="cls-3" d="M362.88,33.16l-11.15,12.22c-1.82,2-4.92,2.14-6.92.32l-7.68-7.01v39.74c0,3.26-2.28,5.91-5.1,5.91h-48.93c-2.81,0-5.1-2.64-5.1-5.91v-41.14l-9.22,8.41c-2,1.82-5.1,1.68-6.92-.32l-11.15-12.22c-1.82-2-1.68-5.1.32-6.92l26.26-23.95c1.28-1.17,3.02-1.53,4.59-1.11.22.06.45.13.66.23.23,1.89,2.12,3.62,5.15,5.01,4.43,2.03,11.31,3.34,19.03,3.34s14.87-1.36,19.29-3.46c2.84-1.35,4.61-3.01,4.88-4.81.51-.24,1.05-.39,1.6-.45,1.34-.14,2.73.28,3.8,1.25l26.26,23.95c2,1.82,2.14,4.92.32,6.92Z"/>
          </g>
          <g id="_Upprepat_stödraster_-49" data-name="&amp;lt;Upprepat stödraster&amp;gt;">
            <path class="cls-3" d="M487.6,33.16l-11.15,12.22c-1.82,2-4.92,2.14-6.92.32l-7.68-7.01v39.74c0,3.26-2.28,5.91-5.1,5.91h-48.93c-2.81,0-5.1-2.64-5.1-5.91v-41.14l-9.22,8.41c-2,1.82-5.1,1.68-6.92-.32l-11.15-12.22c-1.82-2-1.68-5.1.32-6.92l26.26-23.95c1.28-1.17,3.02-1.53,4.59-1.11.22.06.45.13.66.23.23,1.89,2.12,3.62,5.15,5.01,4.43,2.03,11.31,3.34,19.03,3.34s14.87-1.36,19.29-3.46c2.84-1.35,4.61-3.01,4.88-4.81.51-.24,1.05-.39,1.6-.45,1.34-.14,2.73.28,3.8,1.25l26.26,23.95c2,1.82,2.14,4.92.32,6.92Z"/>
          </g>
          <g id="_Upprepat_stödraster_-50" data-name="&amp;lt;Upprepat stödraster&amp;gt;">
            <path class="cls-3" d="M612.32,33.16l-11.15,12.22c-1.82,2-4.92,2.14-6.92.32l-7.68-7.01v39.74c0,3.26-2.28,5.91-5.1,5.91h-48.93c-2.81,0-5.1-2.64-5.1-5.91v-41.14l-9.22,8.41c-2,1.82-5.1,1.68-6.92-.32l-11.15-12.22c-1.82-2-1.68-5.1.32-6.92l26.26-23.95c1.28-1.17,3.02-1.53,4.59-1.11.22.06.45.13.66.23.23,1.89,2.12,3.62,5.15,5.01,4.43,2.03,11.31,3.34,19.03,3.34s14.87-1.36,19.29-3.46c2.84-1.35,4.61-3.01,4.88-4.81.51-.24,1.05-.39,1.6-.45,1.34-.14,2.73.28,3.8,1.25l26.26,23.95c2,1.82,2.14,4.92.32,6.92Z"/>
          </g>
          <g id="_Upprepat_stödraster_-51" data-name="&amp;lt;Upprepat stödraster&amp;gt;">
            <path class="cls-3" d="M113.44,147.56l-11.15,12.22c-1.82,2-4.92,2.14-6.92.32l-7.68-7.01v39.74c0,3.26-2.28,5.91-5.1,5.91h-48.93c-2.81,0-5.1-2.64-5.1-5.91v-41.14l-9.22,8.41c-2,1.82-5.1,1.68-6.92-.32l-11.15-12.22c-1.82-2-1.68-5.1.32-6.92l26.26-23.95c1.28-1.17,3.02-1.53,4.59-1.11.22.06.45.13.66.23.23,1.89,2.12,3.62,5.15,5.01,4.43,2.03,11.31,3.34,19.03,3.34s14.87-1.36,19.29-3.46c2.84-1.35,4.61-3.01,4.88-4.81.51-.24,1.05-.39,1.6-.45,1.34-.14,2.73.28,3.8,1.25l26.26,23.95c2,1.82,2.14,4.92.32,6.92Z"/>
          </g>
          <g id="_Upprepat_stödraster_-52" data-name="&amp;lt;Upprepat stödraster&amp;gt;">
            <path class="cls-3" d="M238.16,147.56l-11.15,12.22c-1.82,2-4.92,2.14-6.92.32l-7.68-7.01v39.74c0,3.26-2.28,5.91-5.1,5.91h-48.93c-2.81,0-5.1-2.64-5.1-5.91v-41.14l-9.22,8.41c-2,1.82-5.1,1.68-6.92-.32l-11.15-12.22c-1.82-2-1.68-5.1.32-6.92l26.26-23.95c1.28-1.17,3.02-1.53,4.59-1.11.22.06.45.13.66.23.23,1.89,2.12,3.62,5.15,5.01,4.43,2.03,11.31,3.34,19.03,3.34s14.87-1.36,19.29-3.46c2.84-1.35,4.61-3.01,4.88-4.81.51-.24,1.05-.39,1.6-.45,1.34-.14,2.73.28,3.8,1.25l26.26,23.95c2,1.82,2.14,4.92.32,6.92Z"/>
          </g>
          <g id="_Upprepat_stödraster_-53" data-name="&amp;lt;Upprepat stödraster&amp;gt;">
            <path class="cls-3" d="M362.88,147.56l-11.15,12.22c-1.82,2-4.92,2.14-6.92.32l-7.68-7.01v39.74c0,3.26-2.28,5.91-5.1,5.91h-48.93c-2.81,0-5.1-2.64-5.1-5.91v-41.14l-9.22,8.41c-2,1.82-5.1,1.68-6.92-.32l-11.15-12.22c-1.82-2-1.68-5.1.32-6.92l26.26-23.95c1.28-1.17,3.02-1.53,4.59-1.11.22.06.45.13.66.23.23,1.89,2.12,3.62,5.15,5.01,4.43,2.03,11.31,3.34,19.03,3.34s14.87-1.36,19.29-3.46c2.84-1.35,4.61-3.01,4.88-4.81.51-.24,1.05-.39,1.6-.45,1.34-.14,2.73.28,3.8,1.25l26.26,23.95c2,1.82,2.14,4.92.32,6.92Z"/>
          </g>
          <g id="_Upprepat_stödraster_-54" data-name="&amp;lt;Upprepat stödraster&amp;gt;">
            <path class="cls-3" d="M487.6,147.56l-11.15,12.22c-1.82,2-4.92,2.14-6.92.32l-7.68-7.01v39.74c0,3.26-2.28,5.91-5.1,5.91h-48.93c-2.81,0-5.1-2.64-5.1-5.91v-41.14l-9.22,8.41c-2,1.82-5.1,1.68-6.92-.32l-11.15-12.22c-1.82-2-1.68-5.1.32-6.92l26.26-23.95c1.28-1.17,3.02-1.53,4.59-1.11.22.06.45.13.66.23.23,1.89,2.12,3.62,5.15,5.01,4.43,2.03,11.31,3.34,19.03,3.34s14.87-1.36,19.29-3.46c2.84-1.35,4.61-3.01,4.88-4.81.51-.24,1.05-.39,1.6-.45,1.34-.14,2.73.28,3.8,1.25l26.26,23.95c2,1.82,2.14,4.92.32,6.92Z"/>
          </g>
          <g id="_Upprepat_stödraster_-55" data-name="&amp;lt;Upprepat stödraster&amp;gt;">
            <path class="cls-3" d="M612.32,147.56l-11.15,12.22c-1.82,2-4.92,2.14-6.92.32l-7.68-7.01v39.74c0,3.26-2.28,5.91-5.1,5.91h-48.93c-2.81,0-5.1-2.64-5.1-5.91v-41.14l-9.22,8.41c-2,1.82-5.1,1.68-6.92-.32l-11.15-12.22c-1.82-2-1.68-5.1.32-6.92l26.26-23.95c1.28-1.17,3.02-1.53,4.59-1.11.22.06.45.13.66.23.23,1.89,2.12,3.62,5.15,5.01,4.43,2.03,11.31,3.34,19.03,3.34s14.87-1.36,19.29-3.46c2.84-1.35,4.61-3.01,4.88-4.81.51-.24,1.05-.39,1.6-.45,1.34-.14,2.73.28,3.8,1.25l26.26,23.95c2,1.82,2.14,4.92.32,6.92Z"/>
          </g>
          <g id="_Upprepat_stödraster_-56" data-name="&amp;lt;Upprepat stödraster&amp;gt;">
            <path class="cls-3" d="M113.44,261.96l-11.15,12.22c-1.82,2-4.92,2.14-6.92.32l-7.68-7.01v39.74c0,3.26-2.28,5.91-5.1,5.91h-48.93c-2.81,0-5.1-2.64-5.1-5.91v-41.14l-9.22,8.41c-2,1.82-5.1,1.68-6.92-.32l-11.15-12.22c-1.82-2-1.68-5.1.32-6.92l26.26-23.95c1.28-1.17,3.02-1.53,4.59-1.11.22.06.45.13.66.23.23,1.89,2.12,3.62,5.15,5.01,4.43,2.03,11.31,3.34,19.03,3.34s14.87-1.36,19.29-3.46c2.84-1.35,4.61-3.01,4.88-4.81.51-.24,1.05-.39,1.6-.45,1.34-.14,2.73.28,3.8,1.25l26.26,23.95c2,1.82,2.14,4.92.32,6.92Z"/>
          </g>
          <g id="_Upprepat_stödraster_-57" data-name="&amp;lt;Upprepat stödraster&amp;gt;">
            <path class="cls-3" d="M238.16,261.96l-11.15,12.22c-1.82,2-4.92,2.14-6.92.32l-7.68-7.01v39.74c0,3.26-2.28,5.91-5.1,5.91h-48.93c-2.81,0-5.1-2.64-5.1-5.91v-41.14l-9.22,8.41c-2,1.82-5.1,1.68-6.92-.32l-11.15-12.22c-1.82-2-1.68-5.1.32-6.92l26.26-23.95c1.28-1.17,3.02-1.53,4.59-1.11.22.06.45.13.66.23.23,1.89,2.12,3.62,5.15,5.01,4.43,2.03,11.31,3.34,19.03,3.34s14.87-1.36,19.29-3.46c2.84-1.35,4.61-3.01,4.88-4.81.51-.24,1.05-.39,1.6-.45,1.34-.14,2.73.28,3.8,1.25l26.26,23.95c2,1.82,2.14,4.92.32,6.92Z"/>
          </g>
          <g id="_Upprepat_stödraster_-58" data-name="&amp;lt;Upprepat stödraster&amp;gt;">
            <path class="cls-3" d="M362.88,261.96l-11.15,12.22c-1.82,2-4.92,2.14-6.92.32l-7.68-7.01v39.74c0,3.26-2.28,5.91-5.1,5.91h-48.93c-2.81,0-5.1-2.64-5.1-5.91v-41.14l-9.22,8.41c-2,1.82-5.1,1.68-6.92-.32l-11.15-12.22c-1.82-2-1.68-5.1.32-6.92l26.26-23.95c1.28-1.17,3.02-1.53,4.59-1.11.22.06.45.13.66.23.23,1.89,2.12,3.62,5.15,5.01,4.43,2.03,11.31,3.34,19.03,3.34s14.87-1.36,19.29-3.46c2.84-1.35,4.61-3.01,4.88-4.81.51-.24,1.05-.39,1.6-.45,1.34-.14,2.73.28,3.8,1.25l26.26,23.95c2,1.82,2.14,4.92.32,6.92Z"/>
          </g>
          <g id="_Upprepat_stödraster_-59" data-name="&amp;lt;Upprepat stödraster&amp;gt;">
            <path class="cls-3" d="M487.6,261.96l-11.15,12.22c-1.82,2-4.92,2.14-6.92.32l-7.68-7.01v39.74c0,3.26-2.28,5.91-5.1,5.91h-48.93c-2.81,0-5.1-2.64-5.1-5.91v-41.14l-9.22,8.41c-2,1.82-5.1,1.68-6.92-.32l-11.15-12.22c-1.82-2-1.68-5.1.32-6.92l26.26-23.95c1.28-1.17,3.02-1.53,4.59-1.11.22.06.45.13.66.23.23,1.89,2.12,3.62,5.15,5.01,4.43,2.03,11.31,3.34,19.03,3.34s14.87-1.36,19.29-3.46c2.84-1.35,4.61-3.01,4.88-4.81.51-.24,1.05-.39,1.6-.45,1.34-.14,2.73.28,3.8,1.25l26.26,23.95c2,1.82,2.14,4.92.32,6.92Z"/>
          </g>
          <g id="_Upprepat_stödraster_-60" data-name="&amp;lt;Upprepat stödraster&amp;gt;">
            <path class="cls-3" d="M612.32,261.96l-11.15,12.22c-1.82,2-4.92,2.14-6.92.32l-7.68-7.01v39.74c0,3.26-2.28,5.91-5.1,5.91h-48.93c-2.81,0-5.1-2.64-5.1-5.91v-41.14l-9.22,8.41c-2,1.82-5.1,1.68-6.92-.32l-11.15-12.22c-1.82-2-1.68-5.1.32-6.92l26.26-23.95c1.28-1.17,3.02-1.53,4.59-1.11.22.06.45.13.66.23.23,1.89,2.12,3.62,5.15,5.01,4.43,2.03,11.31,3.34,19.03,3.34s14.87-1.36,19.29-3.46c2.84-1.35,4.61-3.01,4.88-4.81.51-.24,1.05-.39,1.6-.45,1.34-.14,2.73.28,3.8,1.25l26.26,23.95c2,1.82,2.14,4.92.32,6.92Z"/>
          </g>
          <g id="_Upprepat_stödraster_-61" data-name="&amp;lt;Upprepat stödraster&amp;gt;">
            <path class="cls-3" d="M113.44,376.35l-11.15,12.22c-1.82,2-4.92,2.14-6.92.32l-7.68-7.01v39.74c0,3.26-2.28,5.91-5.1,5.91h-48.93c-2.81,0-5.1-2.64-5.1-5.91v-41.14l-9.22,8.41c-2,1.82-5.1,1.68-6.92-.32l-11.15-12.22c-1.82-2-1.68-5.1.32-6.92l26.26-23.95c1.28-1.17,3.02-1.53,4.59-1.11.22.06.45.13.66.23.23,1.89,2.12,3.62,5.15,5.01,4.43,2.03,11.31,3.34,19.03,3.34s14.87-1.36,19.29-3.46c2.84-1.35,4.61-3.01,4.88-4.81.51-.24,1.05-.39,1.6-.45,1.34-.14,2.73.28,3.8,1.25l26.26,23.95c2,1.82,2.14,4.92.32,6.92Z"/>
          </g>
          <g id="_Upprepat_stödraster_-62" data-name="&amp;lt;Upprepat stödraster&amp;gt;">
            <path class="cls-3" d="M238.16,376.35l-11.15,12.22c-1.82,2-4.92,2.14-6.92.32l-7.68-7.01v39.74c0,3.26-2.28,5.91-5.1,5.91h-48.93c-2.81,0-5.1-2.64-5.1-5.91v-41.14l-9.22,8.41c-2,1.82-5.1,1.68-6.92-.32l-11.15-12.22c-1.82-2-1.68-5.1.32-6.92l26.26-23.95c1.28-1.17,3.02-1.53,4.59-1.11.22.06.45.13.66.23.23,1.89,2.12,3.62,5.15,5.01,4.43,2.03,11.31,3.34,19.03,3.34s14.87-1.36,19.29-3.46c2.84-1.35,4.61-3.01,4.88-4.81.51-.24,1.05-.39,1.6-.45,1.34-.14,2.73.28,3.8,1.25l26.26,23.95c2,1.82,2.14,4.92.32,6.92Z"/>
          </g>
          <g id="_Upprepat_stödraster_-63" data-name="&amp;lt;Upprepat stödraster&amp;gt;">
            <path class="cls-3" d="M362.88,376.35l-11.15,12.22c-1.82,2-4.92,2.14-6.92.32l-7.68-7.01v39.74c0,3.26-2.28,5.91-5.1,5.91h-48.93c-2.81,0-5.1-2.64-5.1-5.91v-41.14l-9.22,8.41c-2,1.82-5.1,1.68-6.92-.32l-11.15-12.22c-1.82-2-1.68-5.1.32-6.92l26.26-23.95c1.28-1.17,3.02-1.53,4.59-1.11.22.06.45.13.66.23.23,1.89,2.12,3.62,5.15,5.01,4.43,2.03,11.31,3.34,19.03,3.34s14.87-1.36,19.29-3.46c2.84-1.35,4.61-3.01,4.88-4.81.51-.24,1.05-.39,1.6-.45,1.34-.14,2.73.28,3.8,1.25l26.26,23.95c2,1.82,2.14,4.92.32,6.92Z"/>
          </g>
          <g id="_Upprepat_stödraster_-64" data-name="&amp;lt;Upprepat stödraster&amp;gt;">
            <path class="cls-3" d="M487.6,376.35l-11.15,12.22c-1.82,2-4.92,2.14-6.92.32l-7.68-7.01v39.74c0,3.26-2.28,5.91-5.1,5.91h-48.93c-2.81,0-5.1-2.64-5.1-5.91v-41.14l-9.22,8.41c-2,1.82-5.1,1.68-6.92-.32l-11.15-12.22c-1.82-2-1.68-5.1.32-6.92l26.26-23.95c1.28-1.17,3.02-1.53,4.59-1.11.22.06.45.13.66.23.23,1.89,2.12,3.62,5.15,5.01,4.43,2.03,11.31,3.34,19.03,3.34s14.87-1.36,19.29-3.46c2.84-1.35,4.61-3.01,4.88-4.81.51-.24,1.05-.39,1.6-.45,1.34-.14,2.73.28,3.8,1.25l26.26,23.95c2,1.82,2.14,4.92.32,6.92Z"/>
          </g>
          <g id="_Upprepat_stödraster_-65" data-name="&amp;lt;Upprepat stödraster&amp;gt;">
            <path class="cls-3" d="M612.32,376.35l-11.15,12.22c-1.82,2-4.92,2.14-6.92.32l-7.68-7.01v39.74c0,3.26-2.28,5.91-5.1,5.91h-48.93c-2.81,0-5.1-2.64-5.1-5.91v-41.14l-9.22,8.41c-2,1.82-5.1,1.68-6.92-.32l-11.15-12.22c-1.82-2-1.68-5.1.32-6.92l26.26-23.95c1.28-1.17,3.02-1.53,4.59-1.11.22.06.45.13.66.23.23,1.89,2.12,3.62,5.15,5.01,4.43,2.03,11.31,3.34,19.03,3.34s14.87-1.36,19.29-3.46c2.84-1.35,4.61-3.01,4.88-4.81.51-.24,1.05-.39,1.6-.45,1.34-.14,2.73.28,3.8,1.25l26.26,23.95c2,1.82,2.14,4.92.32,6.92Z"/>
          </g>
          <g id="_Upprepat_stödraster_-66" data-name="&amp;lt;Upprepat stödraster&amp;gt;">
            <path class="cls-3" d="M113.44,490.75l-11.15,12.22c-1.82,2-4.92,2.14-6.92.32l-7.68-7.01v39.74c0,3.26-2.28,5.91-5.1,5.91h-48.93c-2.81,0-5.1-2.64-5.1-5.91v-41.14l-9.22,8.41c-2,1.82-5.1,1.68-6.92-.32l-11.15-12.22c-1.82-2-1.68-5.1.32-6.92l26.26-23.95c1.28-1.17,3.02-1.53,4.59-1.11.22.06.45.13.66.23.23,1.89,2.12,3.62,5.15,5.01,4.43,2.03,11.31,3.34,19.03,3.34s14.87-1.36,19.29-3.46c2.84-1.35,4.61-3.01,4.88-4.81.51-.24,1.05-.39,1.6-.45,1.34-.14,2.73.28,3.8,1.25l26.26,23.95c2,1.82,2.14,4.92.32,6.92Z"/>
          </g>
          <g id="_Upprepat_stödraster_-67" data-name="&amp;lt;Upprepat stödraster&amp;gt;">
            <path class="cls-3" d="M238.16,490.75l-11.15,12.22c-1.82,2-4.92,2.14-6.92.32l-7.68-7.01v39.74c0,3.26-2.28,5.91-5.1,5.91h-48.93c-2.81,0-5.1-2.64-5.1-5.91v-41.14l-9.22,8.41c-2,1.82-5.1,1.68-6.92-.32l-11.15-12.22c-1.82-2-1.68-5.1.32-6.92l26.26-23.95c1.28-1.17,3.02-1.53,4.59-1.11.22.06.45.13.66.23.23,1.89,2.12,3.62,5.15,5.01,4.43,2.03,11.31,3.34,19.03,3.34s14.87-1.36,19.29-3.46c2.84-1.35,4.61-3.01,4.88-4.81.51-.24,1.05-.39,1.6-.45,1.34-.14,2.73.28,3.8,1.25l26.26,23.95c2,1.82,2.14,4.92.32,6.92Z"/>
          </g>
          <g id="_Upprepat_stödraster_-68" data-name="&amp;lt;Upprepat stödraster&amp;gt;">
            <path class="cls-3" d="M362.88,490.75l-11.15,12.22c-1.82,2-4.92,2.14-6.92.32l-7.68-7.01v39.74c0,3.26-2.28,5.91-5.1,5.91h-48.93c-2.81,0-5.1-2.64-5.1-5.91v-41.14l-9.22,8.41c-2,1.82-5.1,1.68-6.92-.32l-11.15-12.22c-1.82-2-1.68-5.1.32-6.92l26.26-23.95c1.28-1.17,3.02-1.53,4.59-1.11.22.06.45.13.66.23.23,1.89,2.12,3.62,5.15,5.01,4.43,2.03,11.31,3.34,19.03,3.34s14.87-1.36,19.29-3.46c2.84-1.35,4.61-3.01,4.88-4.81.51-.24,1.05-.39,1.6-.45,1.34-.14,2.73.28,3.8,1.25l26.26,23.95c2,1.82,2.14,4.92.32,6.92Z"/>
          </g>
          <g id="_Upprepat_stödraster_-69" data-name="&amp;lt;Upprepat stödraster&amp;gt;">
            <path class="cls-3" d="M487.6,490.75l-11.15,12.22c-1.82,2-4.92,2.14-6.92.32l-7.68-7.01v39.74c0,3.26-2.28,5.91-5.1,5.91h-48.93c-2.81,0-5.1-2.64-5.1-5.91v-41.14l-9.22,8.41c-2,1.82-5.1,1.68-6.92-.32l-11.15-12.22c-1.82-2-1.68-5.1.32-6.92l26.26-23.95c1.28-1.17,3.02-1.53,4.59-1.11.22.06.45.13.66.23.23,1.89,2.12,3.62,5.15,5.01,4.43,2.03,11.31,3.34,19.03,3.34s14.87-1.36,19.29-3.46c2.84-1.35,4.61-3.01,4.88-4.81.51-.24,1.05-.39,1.6-.45,1.34-.14,2.73.28,3.8,1.25l26.26,23.95c2,1.82,2.14,4.92.32,6.92Z"/>
          </g>
          <g id="_Upprepat_stödraster_-70" data-name="&amp;lt;Upprepat stödraster&amp;gt;">
            <path class="cls-3" d="M612.32,490.75l-11.15,12.22c-1.82,2-4.92,2.14-6.92.32l-7.68-7.01v39.74c0,3.26-2.28,5.91-5.1,5.91h-48.93c-2.81,0-5.1-2.64-5.1-5.91v-41.14l-9.22,8.41c-2,1.82-5.1,1.68-6.92-.32l-11.15-12.22c-1.82-2-1.68-5.1.32-6.92l26.26-23.95c1.28-1.17,3.02-1.53,4.59-1.11.22.06.45.13.66.23.23,1.89,2.12,3.62,5.15,5.01,4.43,2.03,11.31,3.34,19.03,3.34s14.87-1.36,19.29-3.46c2.84-1.35,4.61-3.01,4.88-4.81.51-.24,1.05-.39,1.6-.45,1.34-.14,2.73.28,3.8,1.25l26.26,23.95c2,1.82,2.14,4.92.32,6.92Z"/>
          </g>
          <g id="_Upprepat_stödraster_-71" data-name="&amp;lt;Upprepat stödraster&amp;gt;">
            <path class="cls-3" d="M113.44,605.15l-11.15,12.22c-1.82,2-4.92,2.14-6.92.32l-7.68-7.01v39.74c0,3.26-2.28,5.91-5.1,5.91h-48.93c-2.81,0-5.1-2.64-5.1-5.91v-41.14l-9.22,8.41c-2,1.82-5.1,1.68-6.92-.32l-11.15-12.22c-1.82-2-1.68-5.1.32-6.92l26.26-23.95c1.28-1.17,3.02-1.53,4.59-1.11.22.06.45.13.66.23.23,1.89,2.12,3.62,5.15,5.01,4.43,2.03,11.31,3.34,19.03,3.34s14.87-1.36,19.29-3.46c2.84-1.35,4.61-3.01,4.88-4.81.51-.24,1.05-.39,1.6-.45,1.34-.14,2.73.28,3.8,1.25l26.26,23.95c2,1.82,2.14,4.92.32,6.92Z"/>
          </g>
          <g id="_Upprepat_stödraster_-72" data-name="&amp;lt;Upprepat stödraster&amp;gt;">
            <path class="cls-3" d="M238.16,605.15l-11.15,12.22c-1.82,2-4.92,2.14-6.92.32l-7.68-7.01v39.74c0,3.26-2.28,5.91-5.1,5.91h-48.93c-2.81,0-5.1-2.64-5.1-5.91v-41.14l-9.22,8.41c-2,1.82-5.1,1.68-6.92-.32l-11.15-12.22c-1.82-2-1.68-5.1.32-6.92l26.26-23.95c1.28-1.17,3.02-1.53,4.59-1.11.22.06.45.13.66.23.23,1.89,2.12,3.62,5.15,5.01,4.43,2.03,11.31,3.34,19.03,3.34s14.87-1.36,19.29-3.46c2.84-1.35,4.61-3.01,4.88-4.81.51-.24,1.05-.39,1.6-.45,1.34-.14,2.73.28,3.8,1.25l26.26,23.95c2,1.82,2.14,4.92.32,6.92Z"/>
          </g>
          <g id="_Upprepat_stödraster_-73" data-name="&amp;lt;Upprepat stödraster&amp;gt;">
            <path class="cls-3" d="M362.88,605.15l-11.15,12.22c-1.82,2-4.92,2.14-6.92.32l-7.68-7.01v39.74c0,3.26-2.28,5.91-5.1,5.91h-48.93c-2.81,0-5.1-2.64-5.1-5.91v-41.14l-9.22,8.41c-2,1.82-5.1,1.68-6.92-.32l-11.15-12.22c-1.82-2-1.68-5.1.32-6.92l26.26-23.95c1.28-1.17,3.02-1.53,4.59-1.11.22.06.45.13.66.23.23,1.89,2.12,3.62,5.15,5.01,4.43,2.03,11.31,3.34,19.03,3.34s14.87-1.36,19.29-3.46c2.84-1.35,4.61-3.01,4.88-4.81.51-.24,1.05-.39,1.6-.45,1.34-.14,2.73.28,3.8,1.25l26.26,23.95c2,1.82,2.14,4.92.32,6.92Z"/>
          </g>
          <g id="_Upprepat_stödraster_-74" data-name="&amp;lt;Upprepat stödraster&amp;gt;">
            <path class="cls-3" d="M487.6,605.15l-11.15,12.22c-1.82,2-4.92,2.14-6.92.32l-7.68-7.01v39.74c0,3.26-2.28,5.91-5.1,5.91h-48.93c-2.81,0-5.1-2.64-5.1-5.91v-41.14l-9.22,8.41c-2,1.82-5.1,1.68-6.92-.32l-11.15-12.22c-1.82-2-1.68-5.1.32-6.92l26.26-23.95c1.28-1.17,3.02-1.53,4.59-1.11.22.06.45.13.66.23.23,1.89,2.12,3.62,5.15,5.01,4.43,2.03,11.31,3.34,19.03,3.34s14.87-1.36,19.29-3.46c2.84-1.35,4.61-3.01,4.88-4.81.51-.24,1.05-.39,1.6-.45,1.34-.14,2.73.28,3.8,1.25l26.26,23.95c2,1.82,2.14,4.92.32,6.92Z"/>
          </g>
          <g id="_Upprepat_stödraster_-75" data-name="&amp;lt;Upprepat stödraster&amp;gt;">
            <path class="cls-3" d="M612.32,605.15l-11.15,12.22c-1.82,2-4.92,2.14-6.92.32l-7.68-7.01v39.74c0,3.26-2.28,5.91-5.1,5.91h-48.93c-2.81,0-5.1-2.64-5.1-5.91v-41.14l-9.22,8.41c-2,1.82-5.1,1.68-6.92-.32l-11.15-12.22c-1.82-2-1.68-5.1.32-6.92l26.26-23.95c1.28-1.17,3.02-1.53,4.59-1.11.22.06.45.13.66.23.23,1.89,2.12,3.62,5.15,5.01,4.43,2.03,11.31,3.34,19.03,3.34s14.87-1.36,19.29-3.46c2.84-1.35,4.61-3.01,4.88-4.81.51-.24,1.05-.39,1.6-.45,1.34-.14,2.73.28,3.8,1.25l26.26,23.95c2,1.82,2.14,4.92.32,6.92Z"/>
          </g>
          <g id="_Upprepat_stödraster_-76" data-name="&amp;lt;Upprepat stödraster&amp;gt;">
            <path class="cls-3" d="M113.44,719.55l-11.15,12.22c-1.82,2-4.92,2.14-6.92.32l-7.68-7.01v39.74c0,3.26-2.28,5.91-5.1,5.91h-48.93c-2.81,0-5.1-2.64-5.1-5.91v-41.14l-9.22,8.41c-2,1.82-5.1,1.68-6.92-.32l-11.15-12.22c-1.82-2-1.68-5.1.32-6.92l26.26-23.95c1.28-1.17,3.02-1.53,4.59-1.11.22.06.45.13.66.23.23,1.89,2.12,3.62,5.15,5.01,4.43,2.03,11.31,3.34,19.03,3.34s14.87-1.36,19.29-3.46c2.84-1.35,4.61-3.01,4.88-4.81.51-.24,1.05-.39,1.6-.45,1.34-.14,2.73.28,3.8,1.25l26.26,23.95c2,1.82,2.14,4.92.32,6.92Z"/>
          </g>
          <g id="_Upprepat_stödraster_-77" data-name="&amp;lt;Upprepat stödraster&amp;gt;">
            <path class="cls-3" d="M238.16,719.55l-11.15,12.22c-1.82,2-4.92,2.14-6.92.32l-7.68-7.01v39.74c0,3.26-2.28,5.91-5.1,5.91h-48.93c-2.81,0-5.1-2.64-5.1-5.91v-41.14l-9.22,8.41c-2,1.82-5.1,1.68-6.92-.32l-11.15-12.22c-1.82-2-1.68-5.1.32-6.92l26.26-23.95c1.28-1.17,3.02-1.53,4.59-1.11.22.06.45.13.66.23.23,1.89,2.12,3.62,5.15,5.01,4.43,2.03,11.31,3.34,19.03,3.34s14.87-1.36,19.29-3.46c2.84-1.35,4.61-3.01,4.88-4.81.51-.24,1.05-.39,1.6-.45,1.34-.14,2.73.28,3.8,1.25l26.26,23.95c2,1.82,2.14,4.92.32,6.92Z"/>
          </g>
          <g id="_Upprepat_stödraster_-78" data-name="&amp;lt;Upprepat stödraster&amp;gt;">
            <path class="cls-3" d="M362.88,719.55l-11.15,12.22c-1.82,2-4.92,2.14-6.92.32l-7.68-7.01v39.74c0,3.26-2.28,5.91-5.1,5.91h-48.93c-2.81,0-5.1-2.64-5.1-5.91v-41.14l-9.22,8.41c-2,1.82-5.1,1.68-6.92-.32l-11.15-12.22c-1.82-2-1.68-5.1.32-6.92l26.26-23.95c1.28-1.17,3.02-1.53,4.59-1.11.22.06.45.13.66.23.23,1.89,2.12,3.62,5.15,5.01,4.43,2.03,11.31,3.34,19.03,3.34s14.87-1.36,19.29-3.46c2.84-1.35,4.61-3.01,4.88-4.81.51-.24,1.05-.39,1.6-.45,1.34-.14,2.73.28,3.8,1.25l26.26,23.95c2,1.82,2.14,4.92.32,6.92Z"/>
          </g>
          <g id="_Upprepat_stödraster_-79" data-name="&amp;lt;Upprepat stödraster&amp;gt;">
            <path class="cls-3" d="M487.6,719.55l-11.15,12.22c-1.82,2-4.92,2.14-6.92.32l-7.68-7.01v39.74c0,3.26-2.28,5.91-5.1,5.91h-48.93c-2.81,0-5.1-2.64-5.1-5.91v-41.14l-9.22,8.41c-2,1.82-5.1,1.68-6.92-.32l-11.15-12.22c-1.82-2-1.68-5.1.32-6.92l26.26-23.95c1.28-1.17,3.02-1.53,4.59-1.11.22.06.45.13.66.23.23,1.89,2.12,3.62,5.15,5.01,4.43,2.03,11.31,3.34,19.03,3.34s14.87-1.36,19.29-3.46c2.84-1.35,4.61-3.01,4.88-4.81.51-.24,1.05-.39,1.6-.45,1.34-.14,2.73.28,3.8,1.25l26.26,23.95c2,1.82,2.14,4.92.32,6.92Z"/>
          </g>
          <g id="_Upprepat_stödraster_-80" data-name="&amp;lt;Upprepat stödraster&amp;gt;">
            <path class="cls-3" d="M612.32,719.55l-11.15,12.22c-1.82,2-4.92,2.14-6.92.32l-7.68-7.01v39.74c0,3.26-2.28,5.91-5.1,5.91h-48.93c-2.81,0-5.1-2.64-5.1-5.91v-41.14l-9.22,8.41c-2,1.82-5.1,1.68-6.92-.32l-11.15-12.22c-1.82-2-1.68-5.1.32-6.92l26.26-23.95c1.28-1.17,3.02-1.53,4.59-1.11.22.06.45.13.66.23.23,1.89,2.12,3.62,5.15,5.01,4.43,2.03,11.31,3.34,19.03,3.34s14.87-1.36,19.29-3.46c2.84-1.35,4.61-3.01,4.88-4.81.51-.24,1.05-.39,1.6-.45,1.34-.14,2.73.28,3.8,1.25l26.26,23.95c2,1.82,2.14,4.92.32,6.92Z"/>
          </g>
          <g id="_Upprepat_stödraster_-81" data-name="&amp;lt;Upprepat stödraster&amp;gt;">
            <path class="cls-3" d="M113.44,833.95l-11.15,12.22c-1.82,2-4.92,2.14-6.92.32l-7.68-7.01v39.74c0,3.26-2.28,5.91-5.1,5.91h-48.93c-2.81,0-5.1-2.64-5.1-5.91v-41.14l-9.22,8.41c-2,1.82-5.1,1.68-6.92-.32l-11.15-12.22c-1.82-2-1.68-5.1.32-6.92l26.26-23.95c1.28-1.17,3.02-1.53,4.59-1.11.22.06.45.13.66.23.23,1.89,2.12,3.62,5.15,5.01,4.43,2.03,11.31,3.34,19.03,3.34s14.87-1.36,19.29-3.46c2.84-1.35,4.61-3.01,4.88-4.81.51-.24,1.05-.39,1.6-.45,1.34-.14,2.73.28,3.8,1.25l26.26,23.95c2,1.82,2.14,4.92.32,6.92Z"/>
          </g>
          <g id="_Upprepat_stödraster_-82" data-name="&amp;lt;Upprepat stödraster&amp;gt;">
            <path class="cls-3" d="M238.16,833.95l-11.15,12.22c-1.82,2-4.92,2.14-6.92.32l-7.68-7.01v39.74c0,3.26-2.28,5.91-5.1,5.91h-48.93c-2.81,0-5.1-2.64-5.1-5.91v-41.14l-9.22,8.41c-2,1.82-5.1,1.68-6.92-.32l-11.15-12.22c-1.82-2-1.68-5.1.32-6.92l26.26-23.95c1.28-1.17,3.02-1.53,4.59-1.11.22.06.45.13.66.23.23,1.89,2.12,3.62,5.15,5.01,4.43,2.03,11.31,3.34,19.03,3.34s14.87-1.36,19.29-3.46c2.84-1.35,4.61-3.01,4.88-4.81.51-.24,1.05-.39,1.6-.45,1.34-.14,2.73.28,3.8,1.25l26.26,23.95c2,1.82,2.14,4.92.32,6.92Z"/>
          </g>
          <g id="_Upprepat_stödraster_-83" data-name="&amp;lt;Upprepat stödraster&amp;gt;">
            <path class="cls-3" d="M362.88,833.95l-11.15,12.22c-1.82,2-4.92,2.14-6.92.32l-7.68-7.01v39.74c0,3.26-2.28,5.91-5.1,5.91h-48.93c-2.81,0-5.1-2.64-5.1-5.91v-41.14l-9.22,8.41c-2,1.82-5.1,1.68-6.92-.32l-11.15-12.22c-1.82-2-1.68-5.1.32-6.92l26.26-23.95c1.28-1.17,3.02-1.53,4.59-1.11.22.06.45.13.66.23.23,1.89,2.12,3.62,5.15,5.01,4.43,2.03,11.31,3.34,19.03,3.34s14.87-1.36,19.29-3.46c2.84-1.35,4.61-3.01,4.88-4.81.51-.24,1.05-.39,1.6-.45,1.34-.14,2.73.28,3.8,1.25l26.26,23.95c2,1.82,2.14,4.92.32,6.92Z"/>
          </g>
          <g id="_Upprepat_stödraster_-84" data-name="&amp;lt;Upprepat stödraster&amp;gt;">
            <path class="cls-3" d="M487.6,833.95l-11.15,12.22c-1.82,2-4.92,2.14-6.92.32l-7.68-7.01v39.74c0,3.26-2.28,5.91-5.1,5.91h-48.93c-2.81,0-5.1-2.64-5.1-5.91v-41.14l-9.22,8.41c-2,1.82-5.1,1.68-6.92-.32l-11.15-12.22c-1.82-2-1.68-5.1.32-6.92l26.26-23.95c1.28-1.17,3.02-1.53,4.59-1.11.22.06.45.13.66.23.23,1.89,2.12,3.62,5.15,5.01,4.43,2.03,11.31,3.34,19.03,3.34s14.87-1.36,19.29-3.46c2.84-1.35,4.61-3.01,4.88-4.81.51-.24,1.05-.39,1.6-.45,1.34-.14,2.73.28,3.8,1.25l26.26,23.95c2,1.82,2.14,4.92.32,6.92Z"/>
          </g>
          <g id="_Upprepat_stödraster_-85" data-name="&amp;lt;Upprepat stödraster&amp;gt;">
            <path class="cls-3" d="M612.32,833.95l-11.15,12.22c-1.82,2-4.92,2.14-6.92.32l-7.68-7.01v39.74c0,3.26-2.28,5.91-5.1,5.91h-48.93c-2.81,0-5.1-2.64-5.1-5.91v-41.14l-9.22,8.41c-2,1.82-5.1,1.68-6.92-.32l-11.15-12.22c-1.82-2-1.68-5.1.32-6.92l26.26-23.95c1.28-1.17,3.02-1.53,4.59-1.11.22.06.45.13.66.23.23,1.89,2.12,3.62,5.15,5.01,4.43,2.03,11.31,3.34,19.03,3.34s14.87-1.36,19.29-3.46c2.84-1.35,4.61-3.01,4.88-4.81.51-.24,1.05-.39,1.6-.45,1.34-.14,2.73.28,3.8,1.25l26.26,23.95c2,1.82,2.14,4.92.32,6.92Z"/>
          </g>
          <g id="_Upprepat_stödraster_-86" data-name="&amp;lt;Upprepat stödraster&amp;gt;">
            <path class="cls-3" d="M113.44,948.35l-11.15,12.22c-1.82,2-4.92,2.14-6.92.32l-7.68-7.01v39.74c0,3.26-2.28,5.91-5.1,5.91h-48.93c-2.81,0-5.1-2.64-5.1-5.91v-41.14l-9.22,8.41c-2,1.82-5.1,1.68-6.92-.32l-11.15-12.22c-1.82-2-1.68-5.1.32-6.92l26.26-23.95c1.28-1.17,3.02-1.53,4.59-1.11.22.06.45.13.66.23.23,1.89,2.12,3.62,5.15,5.01,4.43,2.03,11.31,3.34,19.03,3.34s14.87-1.36,19.29-3.46c2.84-1.35,4.61-3.01,4.88-4.81.51-.24,1.05-.39,1.6-.45,1.34-.14,2.73.28,3.8,1.25l26.26,23.95c2,1.82,2.14,4.92.32,6.92Z"/>
          </g>
          <g id="_Upprepat_stödraster_-87" data-name="&amp;lt;Upprepat stödraster&amp;gt;">
            <path class="cls-3" d="M238.16,948.35l-11.15,12.22c-1.82,2-4.92,2.14-6.92.32l-7.68-7.01v39.74c0,3.26-2.28,5.91-5.1,5.91h-48.93c-2.81,0-5.1-2.64-5.1-5.91v-41.14l-9.22,8.41c-2,1.82-5.1,1.68-6.92-.32l-11.15-12.22c-1.82-2-1.68-5.1.32-6.92l26.26-23.95c1.28-1.17,3.02-1.53,4.59-1.11.22.06.45.13.66.23.23,1.89,2.12,3.62,5.15,5.01,4.43,2.03,11.31,3.34,19.03,3.34s14.87-1.36,19.29-3.46c2.84-1.35,4.61-3.01,4.88-4.81.51-.24,1.05-.39,1.6-.45,1.34-.14,2.73.28,3.8,1.25l26.26,23.95c2,1.82,2.14,4.92.32,6.92Z"/>
          </g>
          <g id="_Upprepat_stödraster_-88" data-name="&amp;lt;Upprepat stödraster&amp;gt;">
            <path class="cls-3" d="M362.88,948.35l-11.15,12.22c-1.82,2-4.92,2.14-6.92.32l-7.68-7.01v39.74c0,3.26-2.28,5.91-5.1,5.91h-48.93c-2.81,0-5.1-2.64-5.1-5.91v-41.14l-9.22,8.41c-2,1.82-5.1,1.68-6.92-.32l-11.15-12.22c-1.82-2-1.68-5.1.32-6.92l26.26-23.95c1.28-1.17,3.02-1.53,4.59-1.11.22.06.45.13.66.23.23,1.89,2.12,3.62,5.15,5.01,4.43,2.03,11.31,3.34,19.03,3.34s14.87-1.36,19.29-3.46c2.84-1.35,4.61-3.01,4.88-4.81.51-.24,1.05-.39,1.6-.45,1.34-.14,2.73.28,3.8,1.25l26.26,23.95c2,1.82,2.14,4.92.32,6.92Z"/>
          </g>
          <g id="_Upprepat_stödraster_-89" data-name="&amp;lt;Upprepat stödraster&amp;gt;">
            <path class="cls-3" d="M487.6,948.35l-11.15,12.22c-1.82,2-4.92,2.14-6.92.32l-7.68-7.01v39.74c0,3.26-2.28,5.91-5.1,5.91h-48.93c-2.81,0-5.1-2.64-5.1-5.91v-41.14l-9.22,8.41c-2,1.82-5.1,1.68-6.92-.32l-11.15-12.22c-1.82-2-1.68-5.1.32-6.92l26.26-23.95c1.28-1.17,3.02-1.53,4.59-1.11.22.06.45.13.66.23.23,1.89,2.12,3.62,5.15,5.01,4.43,2.03,11.31,3.34,19.03,3.34s14.87-1.36,19.29-3.46c2.84-1.35,4.61-3.01,4.88-4.81.51-.24,1.05-.39,1.6-.45,1.34-.14,2.73.28,3.8,1.25l26.26,23.95c2,1.82,2.14,4.92.32,6.92Z"/>
          </g>
          <g id="_Upprepat_stödraster_-90" data-name="&amp;lt;Upprepat stödraster&amp;gt;">
            <path class="cls-3" d="M612.32,948.35l-11.15,12.22c-1.82,2-4.92,2.14-6.92.32l-7.68-7.01v39.74c0,3.26-2.28,5.91-5.1,5.91h-48.93c-2.81,0-5.1-2.64-5.1-5.91v-41.14l-9.22,8.41c-2,1.82-5.1,1.68-6.92-.32l-11.15-12.22c-1.82-2-1.68-5.1.32-6.92l26.26-23.95c1.28-1.17,3.02-1.53,4.59-1.11.22.06.45.13.66.23.23,1.89,2.12,3.62,5.15,5.01,4.43,2.03,11.31,3.34,19.03,3.34s14.87-1.36,19.29-3.46c2.84-1.35,4.61-3.01,4.88-4.81.51-.24,1.05-.39,1.6-.45,1.34-.14,2.73.28,3.8,1.25l26.26,23.95c2,1.82,2.14,4.92.32,6.92Z"/>
          </g>
        </g>
      </g>
      <path class="cls-4" d="M113.44,33.16l-11.15,12.22c-1.82,2-4.92,2.14-6.92.32l-7.68-7.01v39.74c0,3.26-2.28,5.91-5.1,5.91h-48.93c-2.81,0-5.1-2.64-5.1-5.91v-41.14l-9.22,8.41c-2,1.82-5.1,1.68-6.92-.32L1.28,33.16c-1.82-2-1.68-5.1.32-6.92L27.86,2.28c1.28-1.17,3.02-1.53,4.59-1.11.22.06.45.13.66.23.23,1.89,2.12,3.62,5.15,5.01,4.43,2.03,11.31,3.34,19.03,3.34s14.87-1.36,19.29-3.46c2.84-1.35,4.61-3.01,4.88-4.81.51-.24,1.05-.39,1.6-.45,1.34-.14,2.73.28,3.8,1.25l26.26,23.95c2,1.82,2.14,4.92.32,6.92Z"/>
      <path class="cls-6" d="M612.26,948.07l-11.15,12.22c-1.82,2-4.92,2.14-6.92.32l-7.68-7.01v39.74c0,3.26-2.28,5.91-5.1,5.91h-48.93c-2.81,0-5.1-2.64-5.1-5.91v-41.14l-9.22,8.41c-2,1.82-5.1,1.68-6.92-.32l-11.15-12.22c-1.82-2-1.68-5.1.32-6.92l26.26-23.95c1.28-1.17,3.02-1.53,4.59-1.11.22.06.45.13.66.23.23,1.89,2.12,3.62,5.15,5.01,4.43,2.03,11.31,3.34,19.03,3.34s14.87-1.36,19.29-3.46c2.84-1.35,4.61-3.01,4.88-4.81.51-.24,1.05-.39,1.6-.45,1.34-.14,2.73.28,3.8,1.25l26.26,23.95c2,1.82,2.14,4.92.32,6.92Z"/>
      <path class="cls-6" d="M612.26,834.2l-11.15,12.22c-1.82,2-4.92,2.14-6.92.32l-7.68-7.01v39.74c0,3.26-2.28,5.91-5.1,5.91h-48.93c-2.81,0-5.1-2.64-5.1-5.91v-41.14l-9.22,8.41c-2,1.82-5.1,1.68-6.92-.32l-11.15-12.22c-1.82-2-1.68-5.1.32-6.92l26.26-23.95c1.28-1.17,3.02-1.53,4.59-1.11.22.06.45.13.66.23.23,1.89,2.12,3.62,5.15,5.01,4.43,2.03,11.31,3.34,19.03,3.34s14.87-1.36,19.29-3.46c2.84-1.35,4.61-3.01,4.88-4.81.51-.24,1.05-.39,1.6-.45,1.34-.14,2.73.28,3.8,1.25l26.26,23.95c2,1.82,2.14,4.92.32,6.92Z"/>
    </g>
  </g>
</svg>