<?xml version="1.0" encoding="UTF-8"?>
<svg id="Lager_1" data-name="Lager 1" xmlns="http://www.w3.org/2000/svg" viewBox="0 0 1440 577.64" overflow="hidden">
  <defs>
    <style>
      .cls-1 {
        fill: #472907;
      }

      .cls-1, .cls-2 {
        stroke-width: 0px;
      }

      .cls-3 {
        fill: none;
        stroke-dasharray: 0 0 0 0 2 4 6 7;
      }

      .cls-3, .cls-4 {
        stroke: rgba(71, 41, 7, .9);
        stroke-width: 28px;
      }

      .cls-4 {
        stroke-dasharray: 0 0 0 0 2 4 6 8;
      }

      .cls-4, .cls-2 {
        fill: #fff1d6;
      }
    </style>
  </defs>
  <path class="cls-2" d="M1433.11,115.35c-90.4,128.8-273.5,260-347,293.5l186.5,78,205.5,15c23.5-172.17,45.4-515.3-45-386.5Z"/>
  <path class="cls-4" d="M252,293.14c-166.4,1.6-289,118.33-329.5,176.5l-71,130,1540,59,178.5-71.5c-10.5-75.5-37.7-254.3-138.5-289.5-126-44-478.5,126-623.5,172s-348-178.5-556-176.5Z"/>
  <path class="cls-3" d="M1204.41,328.4c99.54-61.71,286.29-241.41,256.9-270"/>
  <path class="cls-1" d="M1147.2,371.67l90.17-41.41c2.35-1.08,3.53-3.73,2.76-6.19l-6.1-19.54c-.77-2.46-3.25-3.97-5.79-3.53l-97.72,17.2c-3.05.53-4.93,3.63-4.01,6.58l13.65,43.75c.92,2.95,4.23,4.42,7.04,3.14ZM1152.57,358.14c-2.48.77-5.14-.62-5.91-3.11l-7.13-22.84c-.78-2.49.62-5.15,3.1-5.92l10.55-3.29c2.48-.77,5.14.62,5.91,3.11l7.13,22.84c.78,2.49-.62,5.15-3.1,5.92l-10.55,3.29Z"/>
</svg>